<svg width="20" height="20" viewBox="0 0 20 20" fill="none" xmlns="http://www.w3.org/2000/svg">
<path d="M12.8973 10.7422L14.1598 17.8472C14.1739 17.9309 14.1622 18.0168 14.1261 18.0936C14.0901 18.1705 14.0315 18.2344 13.9581 18.277C13.8847 18.3196 13.8 18.3388 13.7155 18.3319C13.6309 18.3251 13.5504 18.2926 13.4848 18.2389L10.5015 15.9997C10.3574 15.8921 10.1825 15.834 10.0027 15.834C9.82294 15.834 9.64798 15.8921 9.50396 15.9997L6.51563 18.238C6.45006 18.2917 6.36968 18.3241 6.28521 18.331C6.20073 18.3378 6.11619 18.3187 6.04285 18.2762C5.9695 18.2338 5.91086 18.17 5.87473 18.0933C5.83859 18.0166 5.8267 17.9308 5.84063 17.8472L7.10229 10.7422" stroke="#E17100" stroke-width="1.66667" stroke-linecap="round" stroke-linejoin="round"/>
<path d="M10 11.668C12.7614 11.668 15 9.42939 15 6.66797C15 3.90654 12.7614 1.66797 10 1.66797C7.23858 1.66797 5 3.90654 5 6.66797C5 9.42939 7.23858 11.668 10 11.668Z" stroke="#E17100" stroke-width="1.66667" stroke-linecap="round" stroke-linejoin="round"/>
</svg>
