<svg width="20" height="20" viewBox="0 0 20 20" fill="none" xmlns="http://www.w3.org/2000/svg">
<path d="M10.4882 2.1563C10.1757 1.84372 9.75183 1.66806 9.30984 1.66797H3.33317C2.89114 1.66797 2.46722 1.84356 2.15466 2.15612C1.8421 2.46868 1.6665 2.89261 1.6665 3.33464V9.3113C1.6666 9.75329 1.84225 10.1771 2.15484 10.4896L9.40817 17.743C9.78693 18.1193 10.2992 18.3306 10.8332 18.3306C11.3671 18.3306 11.8794 18.1193 12.2582 17.743L17.7415 12.2596C18.1179 11.8809 18.3291 11.3686 18.3291 10.8346C18.3291 10.3007 18.1179 9.7884 17.7415 9.40964L10.4882 2.1563Z" stroke="#F54900" stroke-width="1.66667" stroke-linecap="round" stroke-linejoin="round"/>
<path d="M6.25016 6.66536C6.48028 6.66536 6.66683 6.47882 6.66683 6.2487C6.66683 6.01858 6.48028 5.83203 6.25016 5.83203C6.02004 5.83203 5.8335 6.01858 5.8335 6.2487C5.8335 6.47882 6.02004 6.66536 6.25016 6.66536Z" fill="#F54900" stroke="#F54900" stroke-width="1.66667" stroke-linecap="round" stroke-linejoin="round"/>
</svg>
