<svg width="20" height="20" viewBox="0 0 20 20" fill="none" xmlns="http://www.w3.org/2000/svg">
<path d="M11.6665 14.9987V4.9987C11.6665 4.55667 11.4909 4.13275 11.1783 3.82019C10.8658 3.50763 10.4419 3.33203 9.99984 3.33203H3.33317C2.89114 3.33203 2.46722 3.50763 2.15466 3.82019C1.8421 4.13275 1.6665 4.55667 1.6665 4.9987V14.1654C1.6665 14.3864 1.7543 14.5983 1.91058 14.7546C2.06686 14.9109 2.27882 14.9987 2.49984 14.9987H4.1665" stroke="#E7000B" stroke-width="1.66667" stroke-linecap="round" stroke-linejoin="round"/>
<path d="M12.5 15H7.5" stroke="#E7000B" stroke-width="1.66667" stroke-linecap="round" stroke-linejoin="round"/>
<path d="M15.8332 15.0013H17.4998C17.7209 15.0013 17.9328 14.9135 18.0891 14.7572C18.2454 14.6009 18.3332 14.389 18.3332 14.168V11.1263C18.3328 10.9372 18.2682 10.7538 18.1498 10.6063L15.2498 6.9813C15.1719 6.8837 15.073 6.80487 14.9605 6.75063C14.848 6.6964 14.7247 6.66815 14.5998 6.66797H11.6665" stroke="#E7000B" stroke-width="1.66667" stroke-linecap="round" stroke-linejoin="round"/>
<path d="M14.1667 16.6654C15.0871 16.6654 15.8333 15.9192 15.8333 14.9987C15.8333 14.0782 15.0871 13.332 14.1667 13.332C13.2462 13.332 12.5 14.0782 12.5 14.9987C12.5 15.9192 13.2462 16.6654 14.1667 16.6654Z" stroke="#E7000B" stroke-width="1.66667" stroke-linecap="round" stroke-linejoin="round"/>
<path d="M5.83317 16.6654C6.75365 16.6654 7.49984 15.9192 7.49984 14.9987C7.49984 14.0782 6.75365 13.332 5.83317 13.332C4.9127 13.332 4.1665 14.0782 4.1665 14.9987C4.1665 15.9192 4.9127 16.6654 5.83317 16.6654Z" stroke="#E7000B" stroke-width="1.66667" stroke-linecap="round" stroke-linejoin="round"/>
</svg>
