<svg width="20" height="20" viewBox="0 0 20 20" fill="none" xmlns="http://www.w3.org/2000/svg">
<path d="M3.3335 1.66797V18.3346L5.00016 17.5013L6.66683 18.3346L8.3335 17.5013L10.0002 18.3346L11.6668 17.5013L13.3335 18.3346L15.0002 17.5013L16.6668 18.3346V1.66797L15.0002 2.5013L13.3335 1.66797L11.6668 2.5013L10.0002 1.66797L8.3335 2.5013L6.66683 1.66797L5.00016 2.5013L3.3335 1.66797Z" stroke="#155DFC" stroke-width="1.66667" stroke-linecap="round" stroke-linejoin="round"/>
<path d="M13.3332 6.66797H8.33317C7.89114 6.66797 7.46722 6.84356 7.15466 7.15612C6.8421 7.46869 6.6665 7.89261 6.6665 8.33464C6.6665 8.77666 6.8421 9.20059 7.15466 9.51315C7.46722 9.82571 7.89114 10.0013 8.33317 10.0013H11.6665C12.1085 10.0013 12.5325 10.1769 12.845 10.4895C13.1576 10.802 13.3332 11.2259 13.3332 11.668C13.3332 12.11 13.1576 12.5339 12.845 12.8465C12.5325 13.159 12.1085 13.3346 11.6665 13.3346H6.6665" stroke="#155DFC" stroke-width="1.66667" stroke-linecap="round" stroke-linejoin="round"/>
<path d="M10 14.5846V5.41797" stroke="#155DFC" stroke-width="1.66667" stroke-linecap="round" stroke-linejoin="round"/>
</svg>
