<svg width="20" height="20" viewBox="0 0 20 20" fill="none" xmlns="http://www.w3.org/2000/svg">
<path d="M5 18.3346V3.33464C5 2.89261 5.17559 2.46868 5.48816 2.15612C5.80072 1.84356 6.22464 1.66797 6.66667 1.66797H13.3333C13.7754 1.66797 14.1993 1.84356 14.5118 2.15612C14.8244 2.46868 15 2.89261 15 3.33464V18.3346H5Z" stroke="#4F39F6" stroke-width="1.66667" stroke-linecap="round" stroke-linejoin="round"/>
<path d="M4.99996 10H3.33329C2.89127 10 2.46734 10.1756 2.15478 10.4882C1.84222 10.8007 1.66663 11.2246 1.66663 11.6667V16.6667C1.66663 17.1087 1.84222 17.5326 2.15478 17.8452C2.46734 18.1577 2.89127 18.3333 3.33329 18.3333H4.99996" stroke="#4F39F6" stroke-width="1.66667" stroke-linecap="round" stroke-linejoin="round"/>
<path d="M15 7.5H16.6667C17.1087 7.5 17.5326 7.6756 17.8452 7.98816C18.1577 8.30072 18.3333 8.72464 18.3333 9.16667V16.6667C18.3333 17.1087 18.1577 17.5326 17.8452 17.8452C17.5326 18.1577 17.1087 18.3333 16.6667 18.3333H15" stroke="#4F39F6" stroke-width="1.66667" stroke-linecap="round" stroke-linejoin="round"/>
<path d="M8.33337 5H11.6667" stroke="#4F39F6" stroke-width="1.66667" stroke-linecap="round" stroke-linejoin="round"/>
<path d="M8.3335 8.33203H11.6668" stroke="#4F39F6" stroke-width="1.66667" stroke-linecap="round" stroke-linejoin="round"/>
<path d="M8.3335 11.668H11.6668" stroke="#4F39F6" stroke-width="1.66667" stroke-linecap="round" stroke-linejoin="round"/>
<path d="M8.33337 15H11.6667" stroke="#4F39F6" stroke-width="1.66667" stroke-linecap="round" stroke-linejoin="round"/>
</svg>
