<svg width="20" height="20" viewBox="0 0 20 20" fill="none" xmlns="http://www.w3.org/2000/svg">
<path d="M16.6667 6.66602H3.33333C2.8731 6.66602 2.5 7.03911 2.5 7.49935V9.16602C2.5 9.62625 2.8731 9.99935 3.33333 9.99935H16.6667C17.1269 9.99935 17.5 9.62625 17.5 9.16602V7.49935C17.5 7.03911 17.1269 6.66602 16.6667 6.66602Z" stroke="#E60076" stroke-width="2" stroke-linecap="round" stroke-linejoin="round"/>
<path d="M10 6.66602V17.4993" stroke="#E60076" stroke-width="2" stroke-linecap="round" stroke-linejoin="round"/>
<path d="M15.8332 10V15.8333C15.8332 16.2754 15.6576 16.6993 15.345 17.0118C15.0325 17.3244 14.6085 17.5 14.1665 17.5H5.83317C5.39114 17.5 4.96722 17.3244 4.65466 17.0118C4.3421 16.6993 4.1665 16.2754 4.1665 15.8333V10" stroke="#E60076" stroke-width="2" stroke-linecap="round" stroke-linejoin="round"/>
<path d="M6.24984 6.66703C5.6973 6.66703 5.1674 6.44754 4.7767 6.05684C4.386 5.66614 4.1665 5.13623 4.1665 4.5837C4.1665 4.03116 4.386 3.50126 4.7767 3.11056C5.1674 2.71986 5.6973 2.50036 6.24984 2.50036C7.05374 2.48636 7.84152 2.87641 8.51045 3.61966C9.17938 4.36292 9.6984 5.42487 9.99984 6.66703C10.3013 5.42487 10.8203 4.36292 11.4892 3.61966C12.1581 2.87641 12.9459 2.48636 13.7498 2.50036C14.3024 2.50036 14.8323 2.71986 15.223 3.11056C15.6137 3.50126 15.8332 4.03116 15.8332 4.5837C15.8332 5.13623 15.6137 5.66614 15.223 6.05684C14.8323 6.44754 14.3024 6.66703 13.7498 6.66703" stroke="#E60076" stroke-width="2" stroke-linecap="round" stroke-linejoin="round"/>
</svg>
