<svg width="40" height="40" viewBox="0 0 40 40" fill="none" xmlns="http://www.w3.org/2000/svg">
<rect width="40" height="40" rx="10" fill="#EFF6FF"/>
<path d="M26.6668 18.3346C26.6668 22.4955 22.051 26.8288 20.501 28.1671C20.3566 28.2757 20.1808 28.3344 20.0002 28.3344C19.8195 28.3344 19.6437 28.2757 19.4993 28.1671C17.9493 26.8288 13.3335 22.4955 13.3335 18.3346C13.3335 16.5665 14.0359 14.8708 15.2861 13.6206C16.5364 12.3703 18.2321 11.668 20.0002 11.668C21.7683 11.668 23.464 12.3703 24.7142 13.6206C25.9645 14.8708 26.6668 16.5665 26.6668 18.3346Z" stroke="#245BD1" stroke-width="1.16667" stroke-linecap="round" stroke-linejoin="round"/>
<path d="M20 20.832C21.3807 20.832 22.5 19.7127 22.5 18.332C22.5 16.9513 21.3807 15.832 20 15.832C18.6193 15.832 17.5 16.9513 17.5 18.332C17.5 19.7127 18.6193 20.832 20 20.832Z" stroke="#245BD1" stroke-width="1.16667" stroke-linecap="round" stroke-linejoin="round"/>
</svg>
