<svg width="34" height="34" viewBox="0 0 34 34" fill="none" xmlns="http://www.w3.org/2000/svg">
<path d="M27.6251 4.25H4.95841C3.00271 4.25 1.41675 5.83596 1.41675 7.79167V24.7917C1.41675 26.7474 3.00271 28.3333 4.95841 28.3333H21.7905C21.0071 27.2333 20.5417 25.891 20.5417 24.4375C20.5417 20.7209 23.5543 17.7083 27.2709 17.7083C28.7244 17.7083 30.0667 18.1737 31.1667 18.9571V7.79167C31.1667 5.83596 29.5808 4.25 27.6251 4.25ZM20.9313 16.0402L13.7063 20.2116C13.496 20.3334 13.2643 20.3943 13.0334 20.3943C12.8025 20.3943 12.5716 20.3334 12.3605 20.2116C11.939 19.9679 11.6876 19.533 11.6876 19.0457V10.7036C11.6876 10.217 11.939 9.78138 12.3605 9.53842C12.782 9.29546 13.2849 9.29475 13.7063 9.53842L20.9313 13.7098C21.3528 13.9535 21.6042 14.3884 21.6042 14.8757C21.6042 15.363 21.3528 15.7973 20.9313 16.0402Z" fill="#E0E0E0"/>
<path d="M27.2708 19.125C24.3368 19.125 21.9583 21.5036 21.9583 24.4375C21.9583 27.3714 24.3368 29.75 27.2708 29.75C30.2047 29.75 32.5833 27.3714 32.5833 24.4375C32.5833 21.5036 30.2047 19.125 27.2708 19.125ZM29.5424 24.23C29.4043 24.3681 29.2229 24.4375 29.0416 24.4375C28.8603 24.4375 28.6789 24.3681 28.5408 24.23L27.9791 23.6683V26.9167C27.9791 27.3077 27.6618 27.625 27.2708 27.625C26.8798 27.625 26.5624 27.3077 26.5624 26.9167V23.6683L26.0007 24.23C25.7238 24.5069 25.2761 24.5069 24.9991 24.23C24.7222 23.953 24.7222 23.5046 24.9991 23.2284L26.77 21.4575C27.0469 21.1813 27.4946 21.1813 27.7715 21.4575L29.5424 23.2284C29.8193 23.5053 29.8193 23.9537 29.5424 24.23Z" fill="#999999" fill-opacity="0.9"/>
</svg>
